<?xml version="1.0" encoding="utf-8"?>
<svg version="1.1" xmlns:xlink="http://www.w3.org/1999/xlink" width="12px" height="12px" viewBox="629 3303.5  12 12" xmlns="http://www.w3.org/2000/svg">
  <path d="M 635 3303.5  C 638.36 3303.5  641 3306.14  641 3309.5  C 641 3312.86  638.36 3315.5  635 3315.5  C 631.64 3315.5  629 3312.86  629 3309.5  C 629 3306.14  631.64 3303.5  635 3303.5  Z " fill-rule="nonzero" fill="#ffffff" stroke="none" />
  <path d="M 635 3304  C 638.08 3304  640.5 3306.42  640.5 3309.5  C 640.5 3312.58  638.08 3315  635 3315  C 631.92 3315  629.5 3312.58  629.5 3309.5  C 629.5 3306.42  631.92 3304  635 3304  Z " stroke-width="1" stroke="#797979" fill="none" />
  <path d="M 635 3312.5  C 633.32 3312.5  632 3311.18  632 3309.5  C 632 3307.82  633.32 3306.5  635 3306.5  C 636.68 3306.5  638 3307.82  638 3309.5  C 638 3311.18  636.68 3312.5  635 3312.5  " fill-rule="nonzero" fill="#797979" stroke="none" />
</svg>