<?xml version="1.0" encoding="utf-8"?>
<svg version="1.1" xmlns:xlink="http://www.w3.org/1999/xlink" width="11px" height="11px" xmlns="http://www.w3.org/2000/svg">
  <g transform="matrix(1 0 0 1 -477 -1701 )">
    <path d="M 482.5 1702  C 485.02 1702  487 1703.98  487 1706.5  C 487 1709.02  485.02 1711  482.5 1711  C 479.98 1711  478 1709.02  478 1706.5  C 478 1703.98  479.98 1702  482.5 1702  Z " fill-rule="nonzero" fill="#ffffff" stroke="none" />
    <path d="M 482.5 1702  C 485.02 1702  487 1703.98  487 1706.5  C 487 1709.02  485.02 1711  482.5 1711  C 479.98 1711  478 1709.02  478 1706.5  C 478 1703.98  479.98 1702  482.5 1702  Z " stroke-width="2" stroke="#61a5e8" fill="none" />
  </g>
</svg>