<?xml version="1.0" encoding="utf-8"?>
<svg version="1.1" xmlns:xlink="http://www.w3.org/1999/xlink" width="12px" height="12px" viewBox="610 4174.5  12 12" xmlns="http://www.w3.org/2000/svg">
  <path d="M 616 4174.5  C 619.36 4174.5  622 4177.14  622 4180.5  C 622 4183.86  619.36 4186.5  616 4186.5  C 612.64 4186.5  610 4183.86  610 4180.5  C 610 4177.14  612.64 4174.5  616 4174.5  Z " fill-rule="nonzero" fill="#ffffff" stroke="none" />
  <path d="M 616 4175  C 619.08 4175  621.5 4177.42  621.5 4180.5  C 621.5 4183.58  619.08 4186  616 4186  C 612.92 4186  610.5 4183.58  610.5 4180.5  C 610.5 4177.42  612.92 4175  616 4175  Z " stroke-width="1" stroke="#797979" fill="none" />
  <path d="M 616 4183.5  C 614.32 4183.5  613 4182.18  613 4180.5  C 613 4178.82  614.32 4177.5  616 4177.5  C 617.68 4177.5  619 4178.82  619 4180.5  C 619 4182.18  617.68 4183.5  616 4183.5  " fill-rule="nonzero" fill="#797979" stroke="none" />
</svg>