<?xml version="1.0" encoding="utf-8"?>
<svg version="1.1" xmlns:xlink="http://www.w3.org/1999/xlink" width="11px" height="11px" xmlns="http://www.w3.org/2000/svg">
  <g transform="matrix(1 0 0 1 -477 -1727 )">
    <path d="M 482.5 1728  C 485.02 1728  487 1729.98  487 1732.5  C 487 1735.02  485.02 1737  482.5 1737  C 479.98 1737  478 1735.02  478 1732.5  C 478 1729.98  479.98 1728  482.5 1728  Z " fill-rule="nonzero" fill="#ffffff" stroke="none" />
    <path d="M 482.5 1728  C 485.02 1728  487 1729.98  487 1732.5  C 487 1735.02  485.02 1737  482.5 1737  C 479.98 1737  478 1735.02  478 1732.5  C 478 1729.98  479.98 1728  482.5 1728  Z " stroke-width="2" stroke="#7ecf51" fill="none" />
  </g>
</svg>