<?xml version="1.0" encoding="utf-8"?>
<svg version="1.1" xmlns:xlink="http://www.w3.org/1999/xlink" width="12px" height="12px" viewBox="552 3225.5  12 12" xmlns="http://www.w3.org/2000/svg">
  <path d="M 558 3225.5  C 561.36 3225.5  564 3228.14  564 3231.5  C 564 3234.86  561.36 3237.5  558 3237.5  C 554.64 3237.5  552 3234.86  552 3231.5  C 552 3228.14  554.64 3225.5  558 3225.5  Z " fill-rule="nonzero" fill="#ffffff" stroke="none" />
  <path d="M 558 3226  C 561.08 3226  563.5 3228.42  563.5 3231.5  C 563.5 3234.58  561.08 3237  558 3237  C 554.92 3237  552.5 3234.58  552.5 3231.5  C 552.5 3228.42  554.92 3226  558 3226  Z " stroke-width="1" stroke="#797979" fill="none" />
  <path d="M 558 3234.5  C 556.32 3234.5  555 3233.18  555 3231.5  C 555 3229.82  556.32 3228.5  558 3228.5  C 559.68 3228.5  561 3229.82  561 3231.5  C 561 3233.18  559.68 3234.5  558 3234.5  " fill-rule="nonzero" fill="#797979" stroke="none" />
</svg>