<?xml version="1.0" encoding="utf-8"?>
<svg version="1.1" xmlns:xlink="http://www.w3.org/1999/xlink" width="12px" height="12px" viewBox="553 3303.5  12 12" xmlns="http://www.w3.org/2000/svg">
  <path d="M 559 3303.5  C 562.36 3303.5  565 3306.14  565 3309.5  C 565 3312.86  562.36 3315.5  559 3315.5  C 555.64 3315.5  553 3312.86  553 3309.5  C 553 3306.14  555.64 3303.5  559 3303.5  Z " fill-rule="nonzero" fill="#ffffff" stroke="none" />
  <path d="M 559 3304  C 562.08 3304  564.5 3306.42  564.5 3309.5  C 564.5 3312.58  562.08 3315  559 3315  C 555.92 3315  553.5 3312.58  553.5 3309.5  C 553.5 3306.42  555.92 3304  559 3304  Z " stroke-width="1" stroke="#797979" fill="none" />
  <path d="M 559 3312.5  C 557.32 3312.5  556 3311.18  556 3309.5  C 556 3307.82  557.32 3306.5  559 3306.5  C 560.68 3306.5  562 3307.82  562 3309.5  C 562 3311.18  560.68 3312.5  559 3312.5  " fill-rule="nonzero" fill="#797979" stroke="none" />
</svg>