<?xml version="1.0" encoding="utf-8"?>
<svg version="1.1" xmlns:xlink="http://www.w3.org/1999/xlink" width="59px" height="49px" xmlns="http://www.w3.org/2000/svg">
  <g transform="matrix(1 0 0 1 -1207 -2705 )">
    <path d="M 1207 2705  L 1266 2705  L 1266 2754  L 1207 2754  L 1207 2705  " fill-rule="nonzero" fill="#cccccc" stroke="none" />
    <path d="M 1210 2708  L 1263 2708  L 1263 2751  L 1210 2751  L 1210 2708  " fill-rule="nonzero" fill="#ffffff" stroke="none" />
    <path d="M 1241.355 2719.7  C 1239.297 2719.7  1237.68 2718.083  1237.68 2716.025  C 1237.68 2713.967  1239.297 2712.35  1241.355 2712.35  C 1243.413 2712.35  1245.03 2713.967  1245.03 2716.025  C 1245.03 2718.083  1243.413 2719.7  1241.355 2719.7  " fill-rule="nonzero" fill="#cccccc" stroke="none" />
    <path d="M 1211 2750  L 1211 2727.45  L 1223.75 2717.2  L 1241.6 2729.56949152542  L 1251.8 2723.35  L 1262 2729.56949152542  L 1262 2750  L 1211 2750  " fill-rule="nonzero" fill="#169bd5" stroke="none" />
  </g>
</svg>