<?xml version="1.0" encoding="utf-8"?>
<svg version="1.1" xmlns:xlink="http://www.w3.org/1999/xlink" width="12px" height="12px" viewBox="682 420.5  12 12" xmlns="http://www.w3.org/2000/svg">
  <path d="M 688 420.5  C 691.36 420.5  694 423.14  694 426.5  C 694 429.86  691.36 432.5  688 432.5  C 684.64 432.5  682 429.86  682 426.5  C 682 423.14  684.64 420.5  688 420.5  Z " fill-rule="nonzero" fill="#ffffff" stroke="none" />
  <path d="M 688 421  C 691.08 421  693.5 423.42  693.5 426.5  C 693.5 429.58  691.08 432  688 432  C 684.92 432  682.5 429.58  682.5 426.5  C 682.5 423.42  684.92 421  688 421  Z " stroke-width="1" stroke="#797979" fill="none" />
  <path d="M 688 429.5  C 686.32 429.5  685 428.18  685 426.5  C 685 424.82  686.32 423.5  688 423.5  C 689.68 423.5  691 424.82  691 426.5  C 691 428.18  689.68 429.5  688 429.5  " fill-rule="nonzero" fill="#797979" stroke="none" />
</svg>