<?xml version="1.0" encoding="utf-8"?>
<svg version="1.1" xmlns:xlink="http://www.w3.org/1999/xlink" width="11px" height="11px" xmlns="http://www.w3.org/2000/svg">
  <g transform="matrix(1 0 0 1 -1070 -614 )">
    <path d="M 1075.5 615  C 1078.02 615  1080 616.98  1080 619.5  C 1080 622.02  1078.02 624  1075.5 624  C 1072.98 624  1071 622.02  1071 619.5  C 1071 616.98  1072.98 615  1075.5 615  Z " fill-rule="nonzero" fill="#ffffff" stroke="none" />
    <path d="M 1075.5 615  C 1078.02 615  1080 616.98  1080 619.5  C 1080 622.02  1078.02 624  1075.5 624  C 1072.98 624  1071 622.02  1071 619.5  C 1071 616.98  1072.98 615  1075.5 615  Z " stroke-width="2" stroke="#7ecf51" fill="none" />
  </g>
</svg>