<?xml version="1.0" encoding="utf-8"?>
<svg version="1.1" xmlns:xlink="http://www.w3.org/1999/xlink" width="12px" height="12px" viewBox="405 331.5  12 12" xmlns="http://www.w3.org/2000/svg">
  <path d="M 411 331.5  C 414.36 331.5  417 334.14  417 337.5  C 417 340.86  414.36 343.5  411 343.5  C 407.64 343.5  405 340.86  405 337.5  C 405 334.14  407.64 331.5  411 331.5  Z " fill-rule="nonzero" fill="#ffffff" stroke="none" />
  <path d="M 411 332  C 414.08 332  416.5 334.42  416.5 337.5  C 416.5 340.58  414.08 343  411 343  C 407.92 343  405.5 340.58  405.5 337.5  C 405.5 334.42  407.92 332  411 332  Z " stroke-width="1" stroke="#797979" fill="none" />
  <path d="M 411 340.5  C 409.32 340.5  408 339.18  408 337.5  C 408 335.82  409.32 334.5  411 334.5  C 412.68 334.5  414 335.82  414 337.5  C 414 339.18  412.68 340.5  411 340.5  " fill-rule="nonzero" fill="#797979" stroke="none" />
</svg>