<?xml version="1.0" encoding="utf-8"?>
<svg version="1.1" xmlns:xlink="http://www.w3.org/1999/xlink" width="12px" height="12px" viewBox="482 409.5  12 12" xmlns="http://www.w3.org/2000/svg">
  <path d="M 488 409.5  C 491.36 409.5  494 412.14  494 415.5  C 494 418.86  491.36 421.5  488 421.5  C 484.64 421.5  482 418.86  482 415.5  C 482 412.14  484.64 409.5  488 409.5  Z " fill-rule="nonzero" fill="#ffffff" stroke="none" />
  <path d="M 488 410  C 491.08 410  493.5 412.42  493.5 415.5  C 493.5 418.58  491.08 421  488 421  C 484.92 421  482.5 418.58  482.5 415.5  C 482.5 412.42  484.92 410  488 410  Z " stroke-width="1" stroke="#797979" fill="none" />
  <path d="M 488 418.5  C 486.32 418.5  485 417.18  485 415.5  C 485 413.82  486.32 412.5  488 412.5  C 489.68 412.5  491 413.82  491 415.5  C 491 417.18  489.68 418.5  488 418.5  " fill-rule="nonzero" fill="#797979" stroke="none" />
</svg>