<?xml version="1.0" encoding="utf-8"?>
<svg version="1.1" xmlns:xlink="http://www.w3.org/1999/xlink" width="12px" height="12px" viewBox="406 409.5  12 12" xmlns="http://www.w3.org/2000/svg">
  <path d="M 412 409.5  C 415.36 409.5  418 412.14  418 415.5  C 418 418.86  415.36 421.5  412 421.5  C 408.64 421.5  406 418.86  406 415.5  C 406 412.14  408.64 409.5  412 409.5  Z " fill-rule="nonzero" fill="#ffffff" stroke="none" />
  <path d="M 412 410  C 415.08 410  417.5 412.42  417.5 415.5  C 417.5 418.58  415.08 421  412 421  C 408.92 421  406.5 418.58  406.5 415.5  C 406.5 412.42  408.92 410  412 410  Z " stroke-width="1" stroke="#797979" fill="none" />
  <path d="M 412 418.5  C 410.32 418.5  409 417.18  409 415.5  C 409 413.82  410.32 412.5  412 412.5  C 413.68 412.5  415 413.82  415 415.5  C 415 417.18  413.68 418.5  412 418.5  " fill-rule="nonzero" fill="#797979" stroke="none" />
</svg>