<?xml version="1.0" encoding="utf-8"?>
<svg version="1.1" xmlns:xlink="http://www.w3.org/1999/xlink" width="12px" height="12px" viewBox="606 420.5  12 12" xmlns="http://www.w3.org/2000/svg">
  <path d="M 612 420.5  C 615.36 420.5  618 423.14  618 426.5  C 618 429.86  615.36 432.5  612 432.5  C 608.64 432.5  606 429.86  606 426.5  C 606 423.14  608.64 420.5  612 420.5  Z " fill-rule="nonzero" fill="#ffffff" stroke="none" />
  <path d="M 612 421  C 615.08 421  617.5 423.42  617.5 426.5  C 617.5 429.58  615.08 432  612 432  C 608.92 432  606.5 429.58  606.5 426.5  C 606.5 423.42  608.92 421  612 421  Z " stroke-width="1" stroke="#797979" fill="none" />
  <path d="M 612 429.5  C 610.32 429.5  609 428.18  609 426.5  C 609 424.82  610.32 423.5  612 423.5  C 613.68 423.5  615 424.82  615 426.5  C 615 428.18  613.68 429.5  612 429.5  " fill-rule="nonzero" fill="#797979" stroke="none" />
</svg>