<?xml version="1.0" encoding="utf-8"?>
<svg version="1.1" xmlns:xlink="http://www.w3.org/1999/xlink" width="12px" height="12px" viewBox="354 227.5  12 12" xmlns="http://www.w3.org/2000/svg">
  <path d="M 360 227.5  C 363.36 227.5  366 230.14  366 233.5  C 366 236.86  363.36 239.5  360 239.5  C 356.64 239.5  354 236.86  354 233.5  C 354 230.14  356.64 227.5  360 227.5  Z " fill-rule="nonzero" fill="#ffffff" stroke="none" />
  <path d="M 360 228  C 363.08 228  365.5 230.42  365.5 233.5  C 365.5 236.58  363.08 239  360 239  C 356.92 239  354.5 236.58  354.5 233.5  C 354.5 230.42  356.92 228  360 228  Z " stroke-width="1" stroke="#797979" fill="none" />
  <path d="M 360 236.5  C 358.32 236.5  357 235.18  357 233.5  C 357 231.82  358.32 230.5  360 230.5  C 361.68 230.5  363 231.82  363 233.5  C 363 235.18  361.68 236.5  360 236.5  " fill-rule="nonzero" fill="#797979" stroke="none" />
</svg>