<?xml version="1.0" encoding="utf-8"?>
<svg version="1.1" xmlns:xlink="http://www.w3.org/1999/xlink" width="12px" height="12px" viewBox="421 227.5  12 12" xmlns="http://www.w3.org/2000/svg">
  <path d="M 427 227.5  C 430.36 227.5  433 230.14  433 233.5  C 433 236.86  430.36 239.5  427 239.5  C 423.64 239.5  421 236.86  421 233.5  C 421 230.14  423.64 227.5  427 227.5  Z " fill-rule="nonzero" fill="#ffffff" stroke="none" />
  <path d="M 427 228  C 430.08 228  432.5 230.42  432.5 233.5  C 432.5 236.58  430.08 239  427 239  C 423.92 239  421.5 236.58  421.5 233.5  C 421.5 230.42  423.92 228  427 228  Z " stroke-width="1" stroke="#797979" fill="none" />
  <path d="M 427 236.5  C 425.32 236.5  424 235.18  424 233.5  C 424 231.82  425.32 230.5  427 230.5  C 428.68 230.5  430 231.82  430 233.5  C 430 235.18  428.68 236.5  427 236.5  " fill-rule="nonzero" fill="#797979" stroke="none" />
</svg>